<svg xmlns="http://www.w3.org/2000/svg" xmlns:xlink="http://www.w3.org/1999/xlink" width="180.01" height="62.6" viewBox="0 0 180.01 62.6"><defs><linearGradient id="Degradado_sin_nombre_28" x1="2.58" y1="721.55" x2="9.35" y2="721.55" gradientTransform="translate(0 -674)" gradientUnits="userSpaceOnUse"><stop offset="0" stop-color="#ffff87"/><stop offset="0" stop-color="#fffe85"/><stop offset="0.06" stop-color="#ffef63"/><stop offset="0.11" stop-color="#ffe348"/><stop offset="0.17" stop-color="#ffdb35"/><stop offset="0.22" stop-color="#ffd62a"/><stop offset="0.28" stop-color="#ffd426"/><stop offset="1" stop-color="#ffa80b"/></linearGradient><linearGradient id="Degradado_sin_nombre_28-2" x1="5.39" y1="725.69" x2="12.94" y2="725.69" xlink:href="#Degradado_sin_nombre_28"/><linearGradient id="Degradado_sin_nombre_28-3" x1="0.52" y1="717.2" x2="6.4" y2="717.2" xlink:href="#Degradado_sin_nombre_28"/><linearGradient id="Degradado_sin_nombre_28-4" x1="13.2" y1="732.73" x2="21.92" y2="732.73" xlink:href="#Degradado_sin_nombre_28"/><linearGradient id="Degradado_sin_nombre_28-5" x1="0.02" y1="713.05" x2="4.22" y2="713.05" xlink:href="#Degradado_sin_nombre_28"/><linearGradient id="Degradado_sin_nombre_28-6" x1="8.95" y1="729.45" x2="17.16" y2="729.45" xlink:href="#Degradado_sin_nombre_28"/><linearGradient id="Degradado_sin_nombre_28-7" x1="18.22" y1="729.65" x2="22.39" y2="729.65" xlink:href="#Degradado_sin_nombre_28"/><linearGradient id="Degradado_sin_nombre_28-8" x1="11.46" y1="723.6" x2="13.94" y2="723.6" xlink:href="#Degradado_sin_nombre_28"/><linearGradient id="Degradado_sin_nombre_28-9" x1="14.58" y1="726.85" x2="17.78" y2="726.85" xlink:href="#Degradado_sin_nombre_28"/><linearGradient id="Degradado_sin_nombre_28-10" x1="8.43" y1="720" x2="10.8" y2="720" xlink:href="#Degradado_sin_nombre_28"/><linearGradient id="Degradado_sin_nombre_28-11" x1="4.04" y1="712.45" x2="6.23" y2="712.45" xlink:href="#Degradado_sin_nombre_28"/><linearGradient id="Degradado_sin_nombre_28-12" x1="5.94" y1="716.05" x2="8.35" y2="716.05" xlink:href="#Degradado_sin_nombre_28"/><linearGradient id="Degradado_sin_nombre_28-13" x1="1.17" y1="708.65" x2="4.09" y2="708.65" xlink:href="#Degradado_sin_nombre_28"/><linearGradient id="Degradado_sin_nombre_28-14" x1="18.09" y1="732.95" x2="31.57" y2="732.95" xlink:href="#Degradado_sin_nombre_28"/><linearGradient id="Degradado_sin_nombre_28-15" x1="53.18" y1="721.55" x2="59.95" y2="721.55" xlink:href="#Degradado_sin_nombre_28"/><linearGradient id="Degradado_sin_nombre_28-16" x1="49.59" y1="725.69" x2="57.13" y2="725.69" xlink:href="#Degradado_sin_nombre_28"/><linearGradient id="Degradado_sin_nombre_28-17" x1="56.13" y1="717.15" x2="62.02" y2="717.15" xlink:href="#Degradado_sin_nombre_28"/><linearGradient id="Degradado_sin_nombre_28-18" x1="40.61" y1="732.73" x2="49.34" y2="732.73" xlink:href="#Degradado_sin_nombre_28"/><linearGradient id="Degradado_sin_nombre_28-19" x1="58.31" y1="713.05" x2="62.51" y2="713.05" xlink:href="#Degradado_sin_nombre_28"/><linearGradient id="Degradado_sin_nombre_28-20" x1="45.38" y1="729.45" x2="53.59" y2="729.45" xlink:href="#Degradado_sin_nombre_28"/><linearGradient id="Degradado_sin_nombre_28-21" x1="40.13" y1="729.65" x2="44.31" y2="729.65" xlink:href="#Degradado_sin_nombre_28"/><linearGradient id="Degradado_sin_nombre_28-22" x1="48.59" y1="723.6" x2="51.08" y2="723.6" xlink:href="#Degradado_sin_nombre_28"/><linearGradient id="Degradado_sin_nombre_28-23" x1="44.74" y1="726.85" x2="47.94" y2="726.85" xlink:href="#Degradado_sin_nombre_28"/><linearGradient id="Degradado_sin_nombre_28-24" x1="51.73" y1="720" x2="54.1" y2="720" xlink:href="#Degradado_sin_nombre_28"/><linearGradient id="Degradado_sin_nombre_28-25" x1="56.3" y1="712.45" x2="58.49" y2="712.45" xlink:href="#Degradado_sin_nombre_28"/><linearGradient id="Degradado_sin_nombre_28-26" x1="54.18" y1="716.05" x2="56.59" y2="716.05" xlink:href="#Degradado_sin_nombre_28"/><linearGradient id="Degradado_sin_nombre_28-27" x1="58.44" y1="708.65" x2="61.36" y2="708.65" xlink:href="#Degradado_sin_nombre_28"/><linearGradient id="Degradado_sin_nombre_28-28" x1="30.97" y1="732.95" x2="44.44" y2="732.95" xlink:href="#Degradado_sin_nombre_28"/></defs><g id="Capa_2" data-name="Capa 2"><g id="Capa_1-2" data-name="Capa 1"><path d="M9.32,49.8a7.62,7.62,0,0,1-4.2-.9,5.61,5.61,0,0,1-2.6-3.6C4.82,47.4,7.91,46.7,9.32,49.8Z" fill="url(#Degradado_sin_nombre_28)"/><path d="M12.91,53.5a9.42,9.42,0,0,1-4.39-.4,6.08,6.08,0,0,1-3.2-3.3C8,51.5,11,50.6,12.91,53.5Z" fill="url(#Degradado_sin_nombre_28-2)"/><path d="M6.42,45.8a7.88,7.88,0,0,1-3.9-1.3,5.53,5.53,0,0,1-2-3.9C2.42,42.8,5.52,42.6,6.42,45.8Z" fill="url(#Degradado_sin_nombre_28-3)"/><path d="M21.91,59.2a9.89,9.89,0,0,1-4.5.7,7.18,7.18,0,0,1-4.3-2.4C16.31,58.6,19.12,57,21.91,59.2Z" fill="url(#Degradado_sin_nombre_28-4)"/><path d="M4.22,41.5a6.51,6.51,0,0,1-3-1.5A4.27,4.27,0,0,1,0,36.6C1.52,38.6,3.92,38.8,4.22,41.5Z" fill="url(#Degradado_sin_nombre_28-5)"/><path d="M17.12,56.6a9.38,9.38,0,0,1-4.4.2,6.1,6.1,0,0,1-3.8-2.9C11.82,55.3,14.72,54,17.12,56.6Z" fill="url(#Degradado_sin_nombre_28-6)"/><path d="M19.12,56.4c-.5-1.2-.3-2.5-.9-3.7a6,6,0,0,1,3.2,2.4,7,7,0,0,1,.9,3.5c-1.3-.4-2.6-.8-3.2-2.2Z" fill="url(#Degradado_sin_nombre_28-7)"/><path d="M11.52,46.3a6,6,0,0,1,2.3,3.1,7,7,0,0,1-.2,3.5c-3.5-1.7-1.5-3.6-2.1-6.6Z" fill="url(#Degradado_sin_nombre_28-8)"/><path d="M14.91,53.5c-.3-1.2.2-2.5-.3-3.8a5.86,5.86,0,0,1,2.8,2.8,7,7,0,0,1,.4,3.5c-1.29-.5-2.59-1-2.9-2.5Z" fill="url(#Degradado_sin_nombre_28-9)"/><path d="M9,42.6a6.06,6.06,0,0,1,1.8,3.3,8.42,8.42,0,0,1-.7,3.5C7,46.9,9.22,45.8,9,42.6Z" fill="url(#Degradado_sin_nombre_28-10)"/><path d="M4.92,41.3c-2-2.2,0-3.6.6-5.7a4.91,4.91,0,0,1,.7,3.1A7.07,7.07,0,0,1,4.92,41.3Z" fill="url(#Degradado_sin_nombre_28-11)"/><path d="M7.22,45.5c-2.6-2.9-.31-3.8-.1-6.9a5.87,5.87,0,0,1,1.29,3.5A9.63,9.63,0,0,1,7.22,45.5Z" fill="url(#Degradado_sin_nombre_28-12)"/><path d="M3.32,38.1A2.52,2.52,0,0,1,2,37.2c-1.1-1.2-.9-2.7-.4-4.1A7.75,7.75,0,0,0,2,31.2s.5,1.2.8,1.7c.7,1.1,1.6,2.3,1.2,3.8A3.51,3.51,0,0,1,3.32,38.1Z" fill="url(#Degradado_sin_nombre_28-13)"/><path d="M24.22,59.8c-1.7-1.2-.5-3.2-1.8-4.5a6.76,6.76,0,0,1,3.7,2,7.14,7.14,0,0,1,1.4,3.2c1.7.7,2.1,1.4,4.1,1.7a12.51,12.51,0,0,1-4.5-.8,9.26,9.26,0,0,1-4.3,1.2,7,7,0,0,1-4.7-1.9c2,.5,3.9-1.2,6.1-.9Z" fill="url(#Degradado_sin_nombre_28-14)"/><path d="M53.22,49.8a7.62,7.62,0,0,0,4.2-.9A5.61,5.61,0,0,0,60,45.3C57.72,47.4,54.61,46.7,53.22,49.8Z" fill="url(#Degradado_sin_nombre_28-15)"/><path d="M49.61,53.5A9.51,9.51,0,0,0,54,53.1a6.11,6.11,0,0,0,3.2-3.3C54.52,51.5,51.52,50.6,49.61,53.5Z" fill="url(#Degradado_sin_nombre_28-16)"/><path d="M56.11,45.8A8.09,8.09,0,0,0,60,44.4a5.53,5.53,0,0,0,2-3.9C60.11,42.8,57,42.6,56.11,45.8Z" fill="url(#Degradado_sin_nombre_28-17)"/><path d="M40.61,59.2a9.93,9.93,0,0,0,4.5.7,7.15,7.15,0,0,0,4.3-2.4C46.22,58.6,43.42,57,40.61,59.2Z" fill="url(#Degradado_sin_nombre_28-18)"/><path d="M58.31,41.5a6.51,6.51,0,0,0,3-1.5,4.24,4.24,0,0,0,1.21-3.4c-1.5,2-3.91,2.2-4.21,4.9Z" fill="url(#Degradado_sin_nombre_28-19)"/><path d="M45.42,56.6a9.38,9.38,0,0,0,4.4.2,6.1,6.1,0,0,0,3.8-2.9C50.72,55.3,47.81,54,45.42,56.6Z" fill="url(#Degradado_sin_nombre_28-20)"/><path d="M43.42,56.4c.5-1.2.3-2.5.9-3.7a6,6,0,0,0-3.2,2.4,7,7,0,0,0-.9,3.5c1.3-.4,2.59-.8,3.2-2.2Z" fill="url(#Degradado_sin_nombre_28-21)"/><path d="M51,46.3a5.88,5.88,0,0,0-2.3,3.1,7,7,0,0,0,.2,3.5c3.5-1.7,1.5-3.6,2.1-6.6Z" fill="url(#Degradado_sin_nombre_28-22)"/><path d="M47.61,53.5c.3-1.2-.2-2.5.3-3.8a5.86,5.86,0,0,0-2.8,2.8,7,7,0,0,0-.4,3.5c1.4-.5,2.6-1,2.9-2.5Z" fill="url(#Degradado_sin_nombre_28-23)"/><path d="M53.52,42.6a5.93,5.93,0,0,0-1.8,3.3,8.42,8.42,0,0,0,.7,3.5C55.52,46.9,53.31,45.8,53.52,42.6Z" fill="url(#Degradado_sin_nombre_28-24)"/><path d="M57.72,41.3c2-2.2,0-3.6-.6-5.7a4.53,4.53,0,0,0,.6,5.7Z" fill="url(#Degradado_sin_nombre_28-25)"/><path d="M55.42,45.5c2.6-2.9.3-3.8.1-6.9a5.82,5.82,0,0,0-1.3,3.5A6.1,6.1,0,0,0,55.42,45.5Z" fill="url(#Degradado_sin_nombre_28-26)"/><path d="M59.22,38.1a2.56,2.56,0,0,0,1.3-.9c1.09-1.2.9-2.7.4-4.1a7.75,7.75,0,0,1-.4-1.9s-.5,1.2-.8,1.7c-.8,1.2-1.6,2.3-1.2,3.8a3.36,3.36,0,0,0,.7,1.4Z" fill="url(#Degradado_sin_nombre_28-27)"/><path d="M38.42,59.8c1.7-1.2.5-3.2,1.8-4.5a6.73,6.73,0,0,0-3.7,2,7.26,7.26,0,0,0-1.41,3.2c-1.7.7-2.09,1.4-4.1,1.7a12.57,12.57,0,0,0,4.51-.8,9.19,9.19,0,0,0,4.29,1.2,7.07,7.07,0,0,0,4.71-1.9c-2.1.5-4-1.2-6.1-.9Z" fill="url(#Degradado_sin_nombre_28-28)"/><path d="M56.61,5.4V25.7a31.2,31.2,0,0,1-18.3,28.4l-.59.3a40.55,40.55,0,0,0-4.2,2.3c-.8.5-1.5,1.1-2.3,1.6A11.53,11.53,0,0,0,29,56.7a28.31,28.31,0,0,0-4.21-2.3h0l-.6-.3h0A31.33,31.33,0,0,1,5.92,25.6V5.4a62.55,62.55,0,0,1,11.3-3.8,58.94,58.94,0,0,1,14-1.6,58.94,58.94,0,0,1,14,1.6A54.24,54.24,0,0,1,56.61,5.4Z" fill="#080536"/><path d="M42.92,29.7a35,35,0,0,1,11.2-3V7a57.9,57.9,0,0,0-10-3.1,60.13,60.13,0,0,0-25.8,0A60.73,60.73,0,0,0,8.32,7V25.6c0,1,0,2,.1,3a41.1,41.1,0,0,1,16-3.1A42.59,42.59,0,0,1,42.92,29.7Z" fill="#80c41c"/><path d="M32.52,22.2c-.3-.3-.71-.5-.8-.9s.2-1.1.59-1.6.8-1.1.6-1.6-1-.9-1.3-1.5c-.1-.2-.1-.4-.2-.5a.55.55,0,0,0-.5-.3c-.2,0-.4.1-.6.1-.4,0-.4-.6-.7-.8s-.6-.1-.8,0-.4.4-.6.6a1.27,1.27,0,0,1-.9.4,2.35,2.35,0,0,1-.8-.2.57.57,0,0,0-.7.2c-.2.3.2.8-.1,1.1a.62.62,0,0,1-.7-.1,4.35,4.35,0,0,0-.7-.4,1.15,1.15,0,0,0-.9.6c-.2.3-.4.7-.7.8s-.5,0-.8.1c-.5.3-.1,1.1-.6,1.4s-1.1,0-1.3.4.2.7.1.9-.5.3-.9.5a.89.89,0,0,0-.5.8.86.86,0,0,0,.6.7c.4.1.8,0,1.1.3s.1.5.3.7a.9.9,0,0,0,1.1,0c.4-.1.7-.4,1.1-.3s.7.5,1.1.7a.9.9,0,0,1,.5.1l.4.4a1.38,1.38,0,0,0,1.1.1c.2-.1.3-.1.4-.2,0,.1.1.1.1.2V26l1.5.3v-.5a1.76,1.76,0,0,1-.1-.6c0-.3-.1-.4,0-.6s.4.2.4.1c.5,0,.7-.3,1.2-.3a2.2,2.2,0,0,0,.8-.1,1.78,1.78,0,0,0,.8-.7,1.28,1.28,0,0,1,1-.4c.2,0,.3.2.5.1a.45.45,0,0,0,.3-.3c.2-.2-.1-.5-.39-.8Z" fill="#fff"/><path d="M33.52,53.7a4.65,4.65,0,0,1-2.21-6.5,2.22,2.22,0,0,1,2.5-1c-.5-3.2-3.1-1.9-3.1-1.9-.6-.8-2.5-.8-2.5-.8a3.44,3.44,0,0,0-.9.1c-2,.8-3.6,3.6-4.1,7.1v.1c-.1,0-.1-.1-.2-.1.6.3,1.2.6,1.7.9l1.5.7a21.12,21.12,0,0,1,3.3,1.8l1.6,1.1,1.6-1.1Zm-4.21-8.6-.4.8a.1.1,0,0,1-.1.1h-1.1s-.1,0,0-.1a4.91,4.91,0,0,1,1.6-.8Z" fill="#2e58a6"/><path d="M44.22,33.4c-1.1.8-2.1,1.6-3.2,2.5-.91-.7-1.8-1.4-2.71-2a34.19,34.19,0,0,0-19-5.7,34.73,34.73,0,0,0-10.7,1.7A28.51,28.51,0,0,0,16.72,46a25.76,25.76,0,0,0,8,5.6l1.5.7a21.12,21.12,0,0,1,3.3,1.8l1.6,1.1,1.6-1.1A26.14,26.14,0,0,1,36,52.3c.5-.2,1-.5,1.5-.7a31.4,31.4,0,0,0,8-5.6,27.93,27.93,0,0,0,8.2-17.2A37.79,37.79,0,0,0,44.22,33.4Z" fill="#2e58a6"/><path d="M38.42,42.1c0,2.3-1.9,2.2-1.9,2.2,5.7-9.6-6.5-13.5-6.5-13.5,4.4,7.7-2.71,10.7-2.71,10.7.3-2.1-1.7-4.7-1.7-4.7-5.2,6.6-4.1,11-2.5,13.9.1,0,.1.1.2.1v-.1c.5-3.5,2.1-6.4,4.1-7.1a3.48,3.48,0,0,1,.9-.1s1.9-.1,2.5.8c0,0,2.6-1.3,3.1,1.9a2.22,2.22,0,0,0-2.5,1,4.71,4.71,0,0,0,2.2,6.5l2.7-1.5c.5-.2,1-.5,1.5-.7.3-.1.5-.3.8-.4C43.61,44.2,38.42,42.1,38.42,42.1Z" fill="#1fa2ba"/><path d="M29.31,45a6.84,6.84,0,0,0-1.6.9V46h1.1c.1,0,.1,0,.1-.1s.21-.6.4-.9Z" fill="#1fa2ba"/><path d="M33.52,53.7a4.65,4.65,0,0,1-2.21-6.5,2.22,2.22,0,0,1,2.5-1c-.5-3.2-3.1-1.9-3.1-1.9-.6-.8-2.5-.8-2.5-.8a3.44,3.44,0,0,0-.9.1c-2,.8-3.6,3.6-4.1,7.1v.1c-.1,0-.1.1-.2.1.6.3,1.2.5,1.7.8l1.5.7a21.12,21.12,0,0,1,3.3,1.8,9.91,9.91,0,0,0,1.7,1.1A10.51,10.51,0,0,1,33,54.2C33.22,54,33.72,53.8,33.52,53.7Zm-4.21-8.6-.4.8a.1.1,0,0,1-.1.1h-1.1s-.1,0,0-.1a4.91,4.91,0,0,1,1.6-.8Z" fill="#080536"/><path d="M43.11,13.3a5,5,0,0,0-1.9-1,2.35,2.35,0,0,0-.8-.2c-.2,0-.4.1-.5,0s-.2-.3-.4-.4a.63.63,0,0,0-.6,0,1.68,1.68,0,0,0-.4.4A4.43,4.43,0,0,1,37,13.3a1.42,1.42,0,0,1-.6.2,1.49,1.49,0,0,1-.7-.3,1.45,1.45,0,0,0-1.9.9.84.84,0,0,1-.2.7c-.2.3-.6.3-.9.3a3.55,3.55,0,0,0-1-.2A2.14,2.14,0,0,0,30,16.1c-.4.5-.8,1-1.2,1.6a.76.76,0,0,0-.2.4c-.1.4.4.7.5,1s-.3.8-.6,1a4.13,4.13,0,0,0-1.1.7c-.3.3-.4.9,0,1.1.1.1.4.1.6.1s.4.5.7.7.6-.1.9,0,.3.7.5.8.9.6,1.3.5.5-.4.9-.5.5,0,.7.2.4.3.8.4,1.1-.2,1.5.1c.1.1.3.3.4.3.4.2.9-.2,1.4-.4v.7c0,.3.1.4.1.6a3.28,3.28,0,0,1,0,1,2.81,2.81,0,0,1-.5,1.1,12.5,12.5,0,0,0-1,.9l5.2.5a6,6,0,0,1-1.1-1.6c-.1-.1-.5-.7-.6-.8a.85.85,0,0,1,0-.7V24.7c0-.5.1-.5.1-.5V24h.3a.91.91,0,0,0,.7-.3c.2-.3,0-.6-.1-.8s-.4-.5-.4-.8.3-.6.6-.8a19,19,0,0,0,2.1-1.9,3.29,3.29,0,0,0,.8-2.5,2,2,0,0,1-.1-1.3c.2-.4.7-.5.8-.9a3.65,3.65,0,0,0-.9-1.4" fill="#126828"/><path d="M51.81,24.3a.56.56,0,0,1,.21-.5c.09-.1.29,0,.5-.2l.09-.1h0c.7.4,1.41-.4,1.41-.4V7a1.26,1.26,0,0,0-1,1.1c0,.5-1.1.6-1.5.4s-1,.2-1.8.9a1.42,1.42,0,0,1-2,0,1.34,1.34,0,0,0-1.5,0c-.3.3-.1,1.1.09,1.3s.5.8.41.9a2,2,0,0,1-1.3-.1c-.6-.2-.9-.3-1.3.2s.4,1.2.6,1.7-.41.5-.91.5a1.59,1.59,0,0,0-1.2.9c-.2.4-.59.4-1.3.5s-.79,1.2-.9,1.7-.7.8-1.2.9-.7.3-.9.9.3,1.2.4,1.9a1,1,0,0,1-.9,1.2c-.4.2-.2,1,0,1.3s1.1.3,1.7.4.4.4.7.8.4.3.8.3.5.2,1.2-.1.5-.3,1,0,1,.1,1.6-.5.8-.2,1.4-.1.8,0,1-.4a1.07,1.07,0,0,1,1-.3c.2,0,.5.3,1.1.5a5.13,5.13,0,0,0,.4,1,.78.78,0,0,1,0,.7,1.43,1.43,0,0,1-.1,1.1,8,8,0,0,1-1.7,1.4c.3,0,.7.1,1.1.1l3.8-.8-.3-.3a2,2,0,0,1-.7-.9,3.71,3.71,0,0,1-.2-.9A4.3,4.3,0,0,0,51.81,24.3Z" fill="#12491d"/><path d="M23,26.1a33.18,33.18,0,0,1,18.7,5.6A36.28,36.28,0,0,1,54,27.3v-.5a35.72,35.72,0,0,0-11.21,3,42.6,42.6,0,0,0-34.4-1.1c0,.2,0,.4.11.5A35.92,35.92,0,0,1,23,26.1Z" fill="#fff"/><path d="M77.11,46.6h-1.9a.21.21,0,0,0-.19.2v.1a.21.21,0,0,0,.19.2h1.5v.4a2,2,0,0,1-.1.8,1.36,1.36,0,0,1-1,.9,1.66,1.66,0,0,1-.69.1,1.7,1.7,0,0,1-.7-.1,2.19,2.19,0,0,1-.5-.3,1.54,1.54,0,0,1-.4-.6,2,2,0,0,1-.1-.8V45.9c0-.3.1-.6.1-.8a1.27,1.27,0,0,1,.4-.6.85.85,0,0,1,.5-.3,1.7,1.7,0,0,1,.7-.1,1.66,1.66,0,0,1,.69.1c.2.1.41.1.5.3s.31.2.31.4.1.3.19.4,0,.1.1.1h.4v-.1a1.09,1.09,0,0,0-.1-.5,1,1,0,0,0-.4-.5,1.61,1.61,0,0,0-.7-.4,3.59,3.59,0,0,0-1.1-.2,3,3,0,0,0-1,.2,1.79,1.79,0,0,0-.7.5,1.9,1.9,0,0,0-.5.7,3.22,3.22,0,0,0-.19.9v1.7a2.16,2.16,0,0,0,.19.9,4.32,4.32,0,0,0,.41.7,1.76,1.76,0,0,0,.69.5,3,3,0,0,0,1,.2,3,3,0,0,0,1-.2,3.56,3.56,0,0,0,.81-.5,2.32,2.32,0,0,0,.5-.8,3.41,3.41,0,0,0,.09-1v-.8c.21,0,.1-.1,0-.1ZM79,43.7h-.2a.22.22,0,0,0-.2.2v5.8a.22.22,0,0,0,.2.2H79a.21.21,0,0,0,.19-.2V43.9A.21.21,0,0,0,79,43.7Zm6.9,0h-.3l-.1.1-2,3.9-2-3.9-.1-.1h-.3a.22.22,0,0,0-.2.2v5.8a.22.22,0,0,0,.2.2h.1a.22.22,0,0,0,.2-.2V44.9l1.69,3.3c0,.1.1.2.31.2h.1c.09,0,.19-.1.3-.2l1.7-3.3v4.8a.21.21,0,0,0,.19.2h.1a.22.22,0,0,0,.2-.2V43.9C86.11,43.8,86,43.7,85.92,43.7Zm6.1,0h-.2a.22.22,0,0,0-.2.2v4.9l-3.3-5-.1-.1h-.3a.22.22,0,0,0-.2.2v5.8a.22.22,0,0,0,.2.2H88a.22.22,0,0,0,.2-.2V44.8l3.3,5,.1.1h.3a.21.21,0,0,0,.19-.2V43.9C92.21,43.8,92.11,43.7,92,43.7Zm4.3.2a.1.1,0,0,0-.1-.1h-.7l-.1.1-2.3,5.7v.2h.49a.1.1,0,0,1,.1-.1l.5-1.4h3.1l.5,1.4.1.1c.1.1.1,0,.1,0h.3v-.2l-2-5.7Zm-1.8,3.9,1.3-3.5,1.3,3.5Zm8.59-.6a3,3,0,0,0-.59-.4c-.31-.1-.5-.2-.91-.3a7.66,7.66,0,0,1-.8-.3,2.19,2.19,0,0,1-.5-.3c-.1-.1-.3-.2-.3-.3a.6.6,0,0,1-.1-.4.9.9,0,0,1,.1-.5c.1-.1.2-.3.3-.3s.3-.1.5-.2.4-.1.6-.1a2,2,0,0,1,1.1.3,1.16,1.16,0,0,1,.5.7c0,.1,0,.1.1.1h.4v-.1a.75.75,0,0,0-.1-.5,1,1,0,0,0-.4-.5,4.35,4.35,0,0,0-.7-.4,4.1,4.1,0,0,0-1.8,0,4.88,4.88,0,0,0-.7.3,1,1,0,0,0-.4.5,1.27,1.27,0,0,0-.1.6,1.08,1.08,0,0,0,.1.6c.1.2.2.3.3.5a1.54,1.54,0,0,0,.6.4,6.89,6.89,0,0,0,.8.3l.9.3a3.33,3.33,0,0,1,.6.3c.1.1.3.2.4.3a.6.6,0,0,1,.1.4.81.81,0,0,1-.4.8,2.27,2.27,0,0,1-1.3.3,1.48,1.48,0,0,1-.7-.1c-.2-.1-.4-.1-.5-.3s-.3-.2-.3-.3a.6.6,0,0,1-.1-.4.1.1,0,0,0-.1-.1h-.4v.1a1.42,1.42,0,0,0,.2.6,2.18,2.18,0,0,0,.4.5,4.35,4.35,0,0,0,.7.4,2.77,2.77,0,0,0,.9.1,2.54,2.54,0,0,0,1.6-.4,1.43,1.43,0,0,0,.6-1.2,1.08,1.08,0,0,0-.1-.6A2.08,2.08,0,0,1,103.11,47.2Zm2.1-3.5H105a.22.22,0,0,0-.2.2v5.8a.22.22,0,0,0,.2.2h.19a.22.22,0,0,0,.2-.2V43.9C105.42,43.8,105.42,43.7,105.21,43.7Zm6.11,1.3a3.51,3.51,0,0,0-.5-.8,1.79,1.79,0,0,0-.7-.5,2.77,2.77,0,0,0-.9-.1,2.48,2.48,0,0,0-.9.1,1.79,1.79,0,0,0-.7.5,2.18,2.18,0,0,0-.5.8,3.59,3.59,0,0,0-.2,1.1v1.5a2.71,2.71,0,0,0,.6,1.9,2.71,2.71,0,0,0,3.4,0,3,3,0,0,0,.69-1.9V46.2a3.3,3.3,0,0,0-.29-1.2Zm-.3,1.8v.7c0,.4-.1.7-.1.9a1.27,1.27,0,0,1-.4.6,2.43,2.43,0,0,1-.5.4,1.5,1.5,0,0,1-.7.1,1.48,1.48,0,0,1-.7-.1,1,1,0,0,1-.5-.4,3.11,3.11,0,0,1-.4-.6,2.48,2.48,0,0,1-.1-.9V46.1c0-.3.1-.7.1-.9a1.27,1.27,0,0,1,.4-.6c.1-.1.4-.3.5-.4a2.5,2.5,0,0,1,1.4,0,1,1,0,0,1,.5.4,3.65,3.65,0,0,1,.4.6,2.48,2.48,0,0,1,.1.9Zm7.4-2.2a1.68,1.68,0,0,1,1.3-.4,2,2,0,0,1,.7.1.79.79,0,0,1,.5.2l.4.4a4.88,4.88,0,0,1,.3.7c0,.1,0,.1.1.1h.39s.1-.1,0-.1c0-.2-.09-.4-.09-.7a2,2,0,0,0-.41-.6,4.57,4.57,0,0,0-.69-.5,3.65,3.65,0,0,0-1.1-.2,3.59,3.59,0,0,0-1.1.2,1.79,1.79,0,0,0-.7.5,2,2,0,0,0-.4.8,2.77,2.77,0,0,0-.1.9v1.6c0,.4.1.7.1.9s.3.5.4.8a1.79,1.79,0,0,0,.7.5,3.12,3.12,0,0,0,2.2,0,1.69,1.69,0,0,0,.69-.5,2.14,2.14,0,0,0,.41-.6,1.63,1.63,0,0,0,.09-.7v-.1h-.39l-.1.1c-.1.3-.1.5-.3.7a1.37,1.37,0,0,1-.9.6c-.2,0-.4.1-.7.1a1.84,1.84,0,0,1-1.3-.4,2,2,0,0,1-.5-1.5V46A1.93,1.93,0,0,1,118.42,44.6Zm7.9,2.6a1.7,1.7,0,0,0,1-.6,2.09,2.09,0,0,0,.39-1.1,1.55,1.55,0,0,0-.5-1.3,3,3,0,0,0-1.5-.4h-2.19a.22.22,0,0,0-.2.2v5.7a.22.22,0,0,0,.2.2h.09a.22.22,0,0,0,.2-.2V47.3h1.8L127,49.7c0,.1.09.1.09.2a.35.35,0,0,0,.2.1h.2v-.2l-1.19-2.6Zm-.8-.5h-1.7V44.2h1.7c1,0,1.5.4,1.5,1.3S126.61,46.7,125.52,46.7Zm3.89-3h-.2a.21.21,0,0,0-.19.2v5.8a.21.21,0,0,0,.19.2h.2a.21.21,0,0,0,.2-.2V43.9C129.52,43.8,129.52,43.7,129.41,43.7Zm5.41,3.5a3.22,3.22,0,0,0-.61-.4c-.3-.1-.5-.2-.89-.3a6.26,6.26,0,0,1-.8-.3,2.19,2.19,0,0,1-.5-.3c-.11-.1-.31-.2-.31-.3a.6.6,0,0,1-.1-.4.9.9,0,0,1,.1-.5c.11-.1.2-.3.31-.3s.3-.1.5-.2.39-.1.6-.1a2,2,0,0,1,1.1.3,1.16,1.16,0,0,1,.5.7c0,.1,0,.1.1.1h.4v-.1a.75.75,0,0,0-.1-.5,1,1,0,0,0-.4-.5,4.35,4.35,0,0,0-.7-.4,4.1,4.1,0,0,0-1.8,0,4.88,4.88,0,0,0-.7.3,1,1,0,0,0-.4.5,1.27,1.27,0,0,0-.1.6,1.08,1.08,0,0,0,.1.6c.1.2.2.3.3.5a1.54,1.54,0,0,0,.6.4,6.89,6.89,0,0,0,.8.3l.9.3a3.33,3.33,0,0,1,.6.3c.1.1.3.2.4.3a.6.6,0,0,1,.1.4.81.81,0,0,1-.4.8,2.27,2.27,0,0,1-1.3.3,1.48,1.48,0,0,1-.7-.1c-.2-.1-.4-.1-.5-.3s-.3-.2-.3-.3a.6.6,0,0,1-.1-.4.1.1,0,0,0-.1-.1H131v.1a1.42,1.42,0,0,0,.2.6,2.18,2.18,0,0,0,.4.5,4.35,4.35,0,0,0,.7.4,2.77,2.77,0,0,0,.9.1,2.54,2.54,0,0,0,1.6-.4,1.43,1.43,0,0,0,.6-1.2,1.08,1.08,0,0,0-.1-.6A1.76,1.76,0,0,1,134.82,47.2Zm5.39-3.5h-4.1a.22.22,0,0,0-.2.2V44a.22.22,0,0,0,.2.2h1.7v5.5a.22.22,0,0,0,.2.2h.1a.22.22,0,0,0,.2-.2V44.2H140a.22.22,0,0,0,.2-.2v-.1c.2-.1.11-.2,0-.2Zm1.61,0h-.2a.22.22,0,0,0-.2.2v5.8a.22.22,0,0,0,.2.2h.2a.22.22,0,0,0,.2-.2V43.9A.22.22,0,0,0,141.82,43.7Zm4.3.2a.1.1,0,0,0-.1-.1h-.7l-.11.1-2.3,5.7v.2h.41a.1.1,0,0,1,.1-.1l.5-1.4H147l.5,1.4.1.1h.4v-.2l-1.9-5.7Zm-1.71,3.9,1.3-3.5L147,47.8Zm9.21-4.1h-.1a.21.21,0,0,0-.2.2v4.9l-3.3-5-.11-.1h-.3a.22.22,0,0,0-.2.2v5.8a.22.22,0,0,0,.2.2h.1a.21.21,0,0,0,.2-.2V44.8l3.3,5,.11.1h.3a.22.22,0,0,0,.2-.2V43.9C153.82,43.8,153.82,43.7,153.62,43.7Zm6.29,2.4a3.59,3.59,0,0,0-.2-1.1,3.51,3.51,0,0,0-.5-.8,1.69,1.69,0,0,0-.69-.5,2.83,2.83,0,0,0-.9-.1,2.48,2.48,0,0,0-.9.1,1.79,1.79,0,0,0-.7.5,2.18,2.18,0,0,0-.5.8,3.59,3.59,0,0,0-.2,1.1v1.5a2.71,2.71,0,0,0,.6,1.9,2.71,2.71,0,0,0,3.4,0,3,3,0,0,0,.7-1.9v-.7a2.27,2.27,0,0,1-.11-.8Zm-.5.7v.7c0,.4-.1.7-.1.9a1.27,1.27,0,0,1-.4.6,2.18,2.18,0,0,1-.5.4,1.46,1.46,0,0,1-.7.1,1.42,1.42,0,0,1-.69-.1,1,1,0,0,1-.5-.4,2.4,2.4,0,0,1-.4-.6,2.48,2.48,0,0,1-.1-.9V46.1c0-.3.1-.7.1-.9a1.27,1.27,0,0,1,.4-.6c.1-.1.39-.3.5-.4a1.42,1.42,0,0,1,.69-.1,1.46,1.46,0,0,1,.7.1,1,1,0,0,1,.5.4,2.71,2.71,0,0,1,.4.6,2.48,2.48,0,0,1,.1.9Z" fill="#080536"/><path d="M77.21,41.1h-.6a4.86,4.86,0,0,1-3.09-.7h0a3.71,3.71,0,0,1-1-2.8V21.8c0-.4.19-.7,1.9-.7s1.9.3,1.9.7V35.5c0,1.5.2,1.7.2,1.7s.5.1.9.1c.69,0,1,1,1,1.9a5,5,0,0,1-.2,1.2c-.4.6-.7.7-1,.7Zm7.81,0a6.9,6.9,0,0,1-6.81-6.9V32.4A6.9,6.9,0,0,1,85,25.5h.5a6.9,6.9,0,0,1,6.8,6.9v1.8a6.89,6.89,0,0,1-6.8,6.9Zm0-11.8a3.14,3.14,0,0,0-3.1,3.2v1.8A3.2,3.2,0,0,0,85,37.5h.5a3.14,3.14,0,0,0,3.09-3.2V32.5a3.2,3.2,0,0,0-3.09-3.2ZM98.21,41.1a20.62,20.62,0,0,1-5.1-.8c-.19-.1-.8-.4-.59-1.5.09-.8.59-2.1,1.4-2.1h.19a17.82,17.82,0,0,0,4,.7,6.07,6.07,0,0,0,1.41-.2,1.06,1.06,0,0,0,.9-1.1,1.73,1.73,0,0,0-.1-.7c0-.1-.1-.2-.4-.3s-.7-.1-1.1-.2h-1.5a3.89,3.89,0,0,1-2.3-.8,4.3,4.3,0,0,1-1.91-3.7,4.63,4.63,0,0,1,2.2-4,7,7,0,0,1,3.5-.9,13.45,13.45,0,0,1,4.6.9c.3.1.6.4.4,1.4-.1.7-.8,2.1-1.6,2.1a.38.38,0,0,1-.3-.1,10.12,10.12,0,0,0-3.1-.7,2.36,2.36,0,0,0-1.6.4c-.3.1-.4.3-.4.8s.1.4.2.5a1.42,1.42,0,0,0,.6.2h.5a11.28,11.28,0,0,1,3,.4,4.49,4.49,0,0,1,3.1,4.6,4.53,4.53,0,0,1-3.5,4.6,5.31,5.31,0,0,1-2.5.5m14.9,0c-1.69,0-1.9-.4-1.9-.8V26.9l.31-.1a13.68,13.68,0,0,1,5.59-1.2,11,11,0,0,1,1.81.1h.1c.3.1.69.3.59,1.4,0,.4-.4,2.3-1.3,2.3h-.1c-.1,0-.4-.1-.6-.1h-.5a5.78,5.78,0,0,0-2.09.5V40.4c-.1.3-.2.7-1.91.7m12.91,0a6.9,6.9,0,0,1-6.81-6.9V32.4A6.9,6.9,0,0,1,126,25.5h.5a6.9,6.9,0,0,1,6.8,6.9v1.8a6.9,6.9,0,0,1-6.8,6.9Zm0-11.8a3.14,3.14,0,0,0-3.1,3.2v1.8a3.2,3.2,0,0,0,3.1,3.2h.5a3.14,3.14,0,0,0,3.1-3.2V32.5a3.2,3.2,0,0,0-3.1-3.2Zm10,11.8c-1.7,0-1.9-.4-1.9-.8V21.9c0-.3.2-.8,1.9-.8s1.89.4,1.89.8v3.8a19.82,19.82,0,0,1,2.61-.2,6.9,6.9,0,0,1,6.8,6.9v1.8a6.9,6.9,0,0,1-6.8,6.9H140a5.88,5.88,0,0,1-2.31-.4c-.19.2-.59.4-1.69.4m1.89-4.6a3.25,3.25,0,0,0,2.11.8h.5a3.14,3.14,0,0,0,3.1-3.2V32.3a3.2,3.2,0,0,0-3.1-3.2H140a6,6,0,0,0-2.11.5v6.9Zm15.5,4.6h-.6a4.91,4.91,0,0,1-3.1-.7h0a3.71,3.71,0,0,1-1-2.8V21.8c0-.4.2-.7,1.9-.7s1.9.3,1.9.7V35.5c0,1.5.2,1.7.2,1.7a2,2,0,0,0,.9.1c.7,0,1,1,1,1.9a5,5,0,0,1-.2,1.2c-.39.6-.79.7-1,.7Zm7.61,0a6.9,6.9,0,0,1-6.81-6.9V32.4A6.9,6.9,0,0,1,161,25.5h.1a6.89,6.89,0,0,1,6.8,6.9v.7c0,1.2-.4,1.9-1,1.9H158a3.21,3.21,0,0,0,3,2.3h.5a3.33,3.33,0,0,0,2.7-1.6,1,1,0,0,1,.8-.4,3.34,3.34,0,0,1,2.4,1.4.74.74,0,0,1,0,.9,6.87,6.87,0,0,1-5.9,3.4l-.5.1Zm3.19-9.5a3.18,3.18,0,0,0-3-2.4h-.1a3,3,0,0,0-3,2.4ZM174,41.1a20.69,20.69,0,0,1-5.11-.8c-.2-.1-.8-.4-.6-1.5.1-.8.6-2.1,1.4-2.1h.2a17.72,17.72,0,0,0,4,.7,5.9,5.9,0,0,0,1.4-.2,1,1,0,0,0,.9-1.1,1.73,1.73,0,0,0-.1-.7c0-.1-.1-.2-.4-.3s-.7-.1-1.1-.2h-1.5a3.89,3.89,0,0,1-2.3-.8,4.29,4.29,0,0,1-1.9-3.7,4.61,4.61,0,0,1,2.2-4,7,7,0,0,1,3.5-.9,13.45,13.45,0,0,1,4.6.9c.3.1.6.4.4,1.4-.1.7-.8,2.1-1.6,2.1a.37.37,0,0,1-.3-.1,10.12,10.12,0,0,0-3.1-.7,2.36,2.36,0,0,0-1.6.4c-.3.1-.4.3-.4.8s.1.4.2.5a1.42,1.42,0,0,0,.6.2h.5a11.28,11.28,0,0,1,3,.4A4.49,4.49,0,0,1,180,36a4.53,4.53,0,0,1-3.5,4.6,5.06,5.06,0,0,1-2.49.5" fill="#080536"/></g></g></svg>